<svg width="22" height="22" viewBox="0 0 22 22" fill="none" xmlns="http://www.w3.org/2000/svg">
<path d="M18.4107 0.0781671C18.3202 0.0497719 18.229 0.0236805 18.1371 0H2.23968C1.99024 0.0609157 1.74525 0.138654 1.50632 0.232626C1.12271 0.398175 0.787283 0.658071 0.531199 0.988045C0.275115 1.31802 0.106733 1.70735 0.0417068 2.11983C0.0386512 2.13044 0.0353275 2.14094 0.031843 2.15139C0.0264286 2.16752 0.0205318 2.18343 0.0140988 2.19918L0.0108824 2.20695L0.0069154 2.21627L0 2.23175V18.1197C0.0395089 18.2711 0.0746756 18.4159 0.11858 18.5586C0.286426 19.0952 0.626835 19.5614 1.08706 19.8849C1.54723 20.2083 2.10142 20.3707 2.66345 20.3471H10.4079C10.4369 20.346 10.4652 20.3384 10.4907 20.3247C10.4939 20.323 10.4971 20.3211 10.5003 20.3192C10.5038 20.317 10.5074 20.3147 10.5108 20.3122C10.5135 20.3103 10.5163 20.3083 10.5189 20.3061L10.5235 20.3024C10.5354 20.2923 10.546 20.2808 10.5551 20.2681C10.7198 19.748 10.8735 19.2038 11.036 18.6508H2.69202C2.0157 18.6508 1.69293 18.3282 1.69293 17.6457V3.63185C1.69293 3.59536 1.69626 3.55775 1.69958 3.52047C1.70285 3.48371 1.70612 3.44723 1.70612 3.4124H18.6641V10.5334C19.187 10.2873 19.7756 10.2172 20.3416 10.3338C20.3444 10.3222 20.3467 10.3111 20.3486 10.3004C20.3509 10.287 20.3525 10.2741 20.3538 10.2617C20.357 10.2293 20.357 10.2 20.357 10.1714C20.357 9.32749 20.3589 8.48458 20.3609 7.64216C20.3648 5.9587 20.3687 4.27728 20.357 2.59387C20.3743 2.08678 20.2348 1.5867 19.9574 1.16179C19.6799 0.736881 19.2781 0.407819 18.8068 0.219446C18.6766 0.167317 18.5445 0.12017 18.4107 0.0781671Z" fill="#202224"/>
<path fill-rule="evenodd" clip-rule="evenodd" d="M19.8586 16.7767L17.1709 14.1126C17.1546 14.1191 17.1397 14.1288 17.127 14.1411C15.7569 15.5061 14.3867 16.8784 13.0165 18.2579C12.959 18.3119 12.9154 18.3789 12.8892 18.4533C12.5862 19.4612 12.2883 20.4773 11.9955 21.5014C11.9926 21.5109 11.9901 21.5206 11.9881 21.5304C11.9846 21.5467 11.9823 21.5633 11.9812 21.58C11.9805 21.5896 11.9803 21.5993 11.9804 21.609C11.9805 21.6188 11.9811 21.6287 11.9821 21.6385C11.9867 21.6846 12.0005 21.7294 12.0226 21.7702C12.0446 21.811 12.0745 21.8471 12.1106 21.8762C12.1172 21.8816 12.124 21.8867 12.131 21.8916C12.1354 21.8947 12.1398 21.8976 12.1444 21.9004L12.1539 21.9062L12.1637 21.9117C12.1856 21.9236 12.2087 21.9332 12.2326 21.9403C12.3436 21.9626 12.4584 21.9566 12.5664 21.9227C13.5106 21.6528 14.4526 21.3785 15.3902 21.0932C15.5258 21.0493 15.6491 20.9741 15.7503 20.8738C17.0795 19.5571 18.4028 18.2404 19.7202 16.9237C19.7436 16.9004 19.767 16.8759 19.7897 16.8517C19.8138 16.826 19.8371 16.8005 19.8586 16.7767ZM15.0875 20.1396L15.1311 20.3712L13.6885 20.8013C13.657 20.8204 13.6227 20.8337 13.5872 20.8411C13.5508 20.8486 13.5131 20.8498 13.4758 20.8443C13.402 20.8335 13.3344 20.7974 13.2844 20.7421C13.2136 20.6867 13.1616 20.6109 13.1352 20.5249C13.1089 20.4389 13.1097 20.347 13.1373 20.2615C13.249 19.9267 13.3457 19.5865 13.4447 19.2387C13.4877 19.0874 13.5312 18.9346 13.5765 18.7802L13.6739 18.7999L13.6784 18.8009L13.6873 18.8026C13.8982 18.8452 14.1074 18.8874 14.3153 18.9308C14.4768 18.9645 14.6374 18.999 14.7973 19.0348C14.8217 19.0457 14.8433 19.0621 14.8604 19.0826C14.8776 19.1031 14.8898 19.1273 14.8961 19.1533C14.9427 19.3808 14.9871 19.6098 15.0313 19.8427L15.0875 20.1396Z" fill="#202224"/>
<path d="M16.106 10.1867V11.8501H4.24884V10.1867H16.106Z" fill="#202224"/>
<path d="M16.1038 8.46846V6.80284H4.24664V8.46846H16.1038Z" fill="#202224"/>
<path d="M15.3111 13.5815C15.0789 13.7447 14.8494 13.9074 14.6212 14.0693C14.0789 14.4539 13.7152 14.8335 13.1682 15.201C13.0813 15.245 12.9845 15.2662 12.8871 15.2625H4.47281C4.40253 15.2625 4.33225 15.2625 4.24225 15.2449V13.5815H15.3111Z" fill="#202224"/>
<path d="M18.1349 13.2962L20.6732 15.8001L21.5801 14.907C21.6318 14.8569 21.6809 14.8042 21.7272 14.749C21.8729 14.5877 21.9535 14.3781 21.9535 14.1608C21.9535 13.9436 21.8729 13.734 21.7272 13.5727C21.2771 13.0922 20.8093 12.6269 20.3307 12.1749C20.1892 12.0382 20.0029 11.9573 19.8063 11.9472C19.6097 11.9371 19.4161 11.9985 19.2614 12.12C18.9758 12.3771 18.715 12.6634 18.4523 12.9515C18.3474 13.0667 18.2421 13.1822 18.1349 13.2962Z" fill="#202224"/>
</svg>
