<svg width="19" height="23" viewBox="0 0 19 23" fill="none" xmlns="http://www.w3.org/2000/svg">
<path d="M14 0.5H2C1.47005 0.501583 0.962265 0.712805 0.587535 1.08753C0.212805 1.46227 0.00158273 1.97005 0 2.5V16.5H2V2.5H14V0.5ZM17 4.5H6C5.47005 4.50158 4.96227 4.7128 4.58753 5.08753C4.2128 5.46227 4.00158 5.97005 4 6.5V20.5C4.00158 21.0299 4.2128 21.5377 4.58753 21.9125C4.96227 22.2872 5.47005 22.4984 6 22.5H17C17.5299 22.4984 18.0377 22.2872 18.4125 21.9125C18.7872 21.5377 18.9984 21.0299 19 20.5V6.5C18.9984 5.97005 18.7872 5.46227 18.4125 5.08753C18.0377 4.7128 17.5299 4.50158 17 4.5ZM17 20.5H6V6.5H17V20.5Z" fill="#EBEBEB"/>
</svg>
