<svg width="477" height="57" viewBox="0 0 477 57" fill="none" xmlns="http://www.w3.org/2000/svg">
<path d="M153.568 0.411255H148.92V5.74196H153.568V0.411255Z" fill="white"/>
<path d="M87.1207 3.00826H83.2924V12.1661H78.6438V15.3099H83.2924C83.2924 33.0516 83.3471 38.5463 83.4155 38.9563C83.4838 39.3664 83.6069 39.9541 83.6889 40.2548C83.771 40.5556 84.0307 41.1433 84.2768 41.5534C84.5229 41.9634 84.9741 42.4828 85.2749 42.7152C85.5757 42.9475 86.191 43.2892 86.6422 43.4669C87.3941 43.7676 87.6539 43.8087 89.6501 43.8087C91.2497 43.8087 92.1248 43.7403 92.8904 43.5763L93.9569 43.3303C93.9569 40.3232 93.9295 40.1865 93.7244 40.2548C93.6619 40.2674 93.5079 40.3027 93.3054 40.3492C93.0653 40.4044 92.7571 40.4751 92.4529 40.5419C91.8923 40.6649 91.031 40.7606 90.5388 40.7606C90.0466 40.7743 89.404 40.6922 89.1032 40.5966C88.8024 40.5009 88.4059 40.3232 88.2145 40.1865C88.0231 40.0635 87.7223 39.6534 87.5309 39.2844L87.1891 38.6146L87.1207 15.3099H93.6834V12.1661H87.1207V3.00826Z" fill="white"/>
<path d="M57.9986 12.0568C57.2192 11.8108 56.5766 11.7151 55.3325 11.6877C54.4301 11.6604 53.3773 11.6877 53.0082 11.7561C52.6253 11.8244 51.9007 12.0158 51.3675 12.1798C50.8342 12.3302 49.7951 12.7812 49.0432 13.1639C48.2912 13.5603 47.2111 14.2164 46.6505 14.6401C46.0899 15.0502 45.2559 15.7199 44.8047 16.1163L43.9844 16.8408L43.916 12.1661H40.0878V43.3303H43.916L43.9024 20.7089C46.295 18.3716 47.5119 17.3465 48.1545 16.9228C48.7971 16.499 49.6584 15.9933 50.0686 15.8156C50.4788 15.6243 51.2171 15.3782 51.7093 15.2415C52.2562 15.1049 53.0902 15.0229 53.8969 15.0229C54.6625 15.0229 55.5102 15.1185 55.9477 15.2415C56.3579 15.3646 56.9868 15.6653 57.3423 15.8976C57.6978 16.1437 58.1626 16.6084 58.3951 16.9501C58.6138 17.2918 58.942 18.0299 59.1197 18.5903C59.4203 19.6148 59.4205 19.6428 59.5024 31.4158L59.5025 31.4387L59.5709 43.2619C60.9518 43.3303 61.7995 43.3166 62.3327 43.2756L63.3308 43.1936L63.3307 43.1756C63.2624 18.686 63.2623 18.6584 62.948 17.5652C62.7839 16.9638 62.4694 16.1027 62.2507 15.6516C62.0319 15.2005 61.5534 14.4898 61.1842 14.0797C60.8014 13.6697 60.1725 13.1093 59.7623 12.8496C59.3521 12.5899 58.5591 12.2345 57.9986 12.0568Z" fill="white"/>
<path fill-rule="evenodd" clip-rule="evenodd" d="M122.259 11.9611C121.766 11.8381 120.536 11.7151 119.524 11.6877C118.335 11.6467 117.337 11.6877 116.721 11.8108C116.188 11.9064 115.422 12.0978 115.012 12.2345C114.602 12.3712 113.795 12.7129 113.235 12.9999C112.674 13.287 111.813 13.8474 111.321 14.2437C110.842 14.6401 110.063 15.4329 109.612 16.0206C109.161 16.5947 108.532 17.5378 108.217 18.1393C107.903 18.727 107.438 19.8478 107.164 20.6406C106.905 21.4334 106.59 22.6909 106.453 23.4426C106.262 24.4678 106.207 25.5202 106.207 27.6799C106.207 29.8531 106.262 30.8783 106.453 31.9171C106.59 32.6688 106.891 33.8717 107.11 34.5824C107.342 35.2932 107.739 36.3047 108.012 36.8377C108.272 37.3708 108.737 38.1636 109.037 38.6146C109.338 39.0657 110.049 39.8995 110.624 40.4735C111.225 41.075 112.114 41.772 112.756 42.1411C113.358 42.4965 114.329 42.9475 114.917 43.1252C115.491 43.3166 116.421 43.5353 116.954 43.6173C117.528 43.713 118.731 43.7403 119.798 43.6993C120.878 43.6583 121.985 43.5353 122.464 43.3986C122.915 43.2756 123.653 43.0295 124.104 42.8382C124.556 42.6605 125.253 42.3051 125.663 42.0591C126.06 41.8267 126.825 41.2253 127.358 40.7332C127.878 40.2412 128.603 39.4484 128.972 38.9563C129.341 38.4643 129.915 37.5075 130.243 36.8377C130.571 36.168 131.009 35.0882 131.2 34.4457C131.392 33.8033 131.652 32.7235 131.788 32.0538C131.98 31.097 132.034 30.1402 132.034 27.6799C132.034 25.2195 131.98 24.2627 131.788 23.3059C131.652 22.6362 131.392 21.5837 131.214 20.9823C131.036 20.3809 130.626 19.3694 130.312 18.727C130.011 18.0846 129.519 17.2235 129.232 16.8134C128.958 16.4034 128.357 15.6653 127.919 15.1869C127.482 14.7085 126.62 13.9977 126.019 13.6013C125.417 13.2049 124.528 12.7129 124.036 12.5215C123.544 12.3302 122.751 12.0705 122.259 11.9611ZM114.698 16.0206C115.135 15.7473 115.833 15.4056 116.243 15.2689C116.653 15.1322 117.309 14.9682 117.678 14.8998C118.061 14.8315 118.882 14.8042 119.524 14.8315C120.167 14.8725 121.001 14.9818 121.37 15.0775C121.753 15.1869 122.327 15.3919 122.669 15.5423C123.011 15.6926 123.626 16.0753 124.036 16.3897C124.446 16.7041 125.048 17.2781 125.376 17.6745C125.69 18.0709 126.196 18.85 126.483 19.4104C126.771 19.9708 127.167 20.9276 127.358 21.529C127.55 22.1305 127.782 23.0872 127.878 23.6477C128.001 24.3174 128.069 25.7253 128.069 27.7482C128.069 30.0992 128.015 31.097 127.823 31.9854C127.7 32.6278 127.454 33.571 127.276 34.104C127.099 34.6371 126.743 35.4846 126.483 36.004C126.224 36.5234 125.677 37.3435 125.267 37.8355C124.856 38.3276 124.118 38.9973 123.626 39.3254C123.134 39.6534 122.368 40.0498 121.917 40.2002C121.37 40.3915 120.591 40.5146 119.593 40.5556C118.335 40.6239 117.897 40.5829 116.926 40.3369C116.284 40.1728 115.422 39.8448 115.012 39.6124C114.602 39.3801 113.864 38.7787 113.372 38.2729C112.879 37.7809 112.223 36.9197 111.909 36.3593C111.594 35.7989 111.184 34.8695 110.993 34.3091C110.815 33.7487 110.555 32.7919 110.432 32.1905C110.309 31.589 110.159 30.3315 110.09 29.3884C110.036 28.4453 110.036 26.9144 110.104 25.9713C110.159 25.0282 110.282 23.921 110.364 23.511C110.446 23.1009 110.596 22.4175 110.706 22.0074C110.801 21.5974 111.061 20.8593 111.266 20.3672C111.471 19.8752 111.895 19.0824 112.209 18.5903C112.524 18.0983 113.044 17.4422 113.344 17.1278C113.659 16.7998 114.274 16.3077 114.698 16.0206Z" fill="white"/>
<path d="M190.21 12.0568C189.431 11.8108 188.788 11.7151 187.544 11.6877C186.642 11.6604 185.603 11.6877 185.22 11.7561C184.851 11.8244 184.099 12.0158 183.579 12.1798C183.06 12.3302 182.007 12.7812 181.255 13.1639C180.503 13.5603 179.423 14.2164 178.862 14.6401C178.302 15.0502 177.468 15.7199 177.016 16.1163L176.196 16.8408L176.128 12.1661H172.3V43.3303H176.128L176.114 20.7089C178.507 18.3716 179.724 17.3465 180.366 16.9228C181.009 16.499 181.87 15.9933 182.28 15.8156C182.691 15.6243 183.429 15.3782 183.921 15.2415C184.468 15.1049 185.302 15.0229 186.109 15.0229C186.874 15.0229 187.722 15.1185 188.159 15.2415C188.57 15.3646 189.199 15.6653 189.554 15.8976C189.91 16.1437 190.374 16.6084 190.607 16.9501C190.826 17.2918 191.154 18.0299 191.331 18.5903C191.632 19.6148 191.632 19.6428 191.714 31.4158L191.783 43.2619C193.164 43.3303 194.011 43.3166 194.558 43.2756L195.543 43.1936L195.543 43.1795C195.474 18.686 195.474 18.6585 195.16 17.5652C194.996 16.9638 194.681 16.1027 194.462 15.6516C194.244 15.2005 193.765 14.4898 193.396 14.0797C193.013 13.6697 192.384 13.1093 191.974 12.8496C191.564 12.5899 190.771 12.2345 190.21 12.0568Z" fill="white"/>
<path fill-rule="evenodd" clip-rule="evenodd" d="M227.878 11.7561C227.427 11.6877 226.264 11.6194 225.28 11.6331C224.296 11.6331 223.106 11.7287 222.614 11.8381C222.122 11.9338 221.452 12.1251 221.11 12.2482C220.768 12.3712 220.153 12.6445 219.743 12.8496C219.332 13.0546 218.553 13.5603 218.034 13.9704C217.514 14.3804 216.653 15.2279 216.147 15.8703C215.614 16.5264 214.93 17.6062 214.547 18.3853C214.178 19.1371 213.754 20.1485 213.59 20.6406C213.44 21.1327 213.18 22.1441 213.03 22.8959C212.879 23.6477 212.701 25.0282 212.66 25.9713C212.606 26.9144 212.606 28.541 212.66 29.5934C212.701 30.6459 212.852 31.9991 212.975 32.6005C213.098 33.2019 213.358 34.186 213.549 34.7875C213.74 35.3889 214.164 36.4003 214.479 37.0428C214.807 37.6852 215.34 38.5736 215.682 39.0247C216.01 39.4757 216.721 40.2412 217.254 40.7332C217.774 41.2253 218.539 41.8267 218.936 42.0591C219.346 42.3051 220.043 42.6605 220.495 42.8382C220.946 43.0295 221.684 43.2756 222.135 43.4123C222.655 43.549 223.708 43.6583 225.007 43.6993C226.592 43.754 227.331 43.713 228.288 43.5353C228.971 43.4123 229.956 43.1389 230.475 42.9475C230.995 42.7425 231.87 42.3051 232.39 41.9634C232.909 41.608 233.77 40.9109 234.29 40.3779C234.796 39.8585 235.589 38.8743 236.04 38.2046C236.491 37.5348 237.011 36.6874 237.189 36.332L237.517 35.6759C235.151 34.4457 234.55 34.2134 234.509 34.2954C234.468 34.3774 234.14 34.9788 233.757 35.6212C233.388 36.2773 232.731 37.2068 232.308 37.7125C231.897 38.2182 231.132 38.888 230.598 39.2434C230.079 39.5988 229.3 40.0088 228.876 40.1728C228.438 40.3232 227.55 40.5282 226.893 40.6102C226.005 40.7196 225.389 40.7196 224.569 40.6102C223.94 40.5282 223.079 40.3369 222.655 40.1865C222.217 40.0362 221.534 39.7081 221.124 39.4621C220.727 39.2297 220.057 38.6556 219.647 38.2046C219.223 37.7535 218.69 37.0428 218.444 36.6327C218.211 36.2227 217.856 35.4846 217.651 34.9925C217.459 34.5004 217.172 33.5846 217.022 32.9422C216.871 32.2998 216.68 31.179 216.612 30.4546C216.53 29.7165 216.461 28.8143 216.461 28.4316V27.7482H237.312C237.148 23.5793 237.025 22.4585 236.792 21.324C236.601 20.4629 236.273 19.2601 236.04 18.6587C235.808 18.0573 235.384 17.1825 235.097 16.7041C234.81 16.2393 234.331 15.5559 234.03 15.1869C233.729 14.8315 233.155 14.2711 232.759 13.9294C232.349 13.6013 231.733 13.1639 231.391 12.9589C231.036 12.7539 230.284 12.4258 229.723 12.2482C229.163 12.0568 228.329 11.8381 227.878 11.7561ZM219.661 17.1551C220.276 16.5401 221.083 15.884 221.452 15.6926C221.835 15.4876 222.6 15.2005 223.161 15.0365C223.995 14.8178 224.473 14.7768 225.758 14.8178C226.907 14.8588 227.55 14.9545 228.151 15.1595C228.602 15.3236 229.272 15.6516 229.641 15.8976C230.011 16.1437 230.626 16.6767 231.009 17.0868C231.391 17.5105 231.925 18.2759 232.212 18.7953C232.485 19.3284 232.827 20.1485 232.977 20.6406C233.128 21.1327 233.319 21.9938 233.401 22.5542C233.483 23.1146 233.579 23.8664 233.688 24.8778H216.461L216.543 24.1671C216.598 23.7707 216.776 22.8549 216.953 22.1441C217.131 21.4197 217.569 20.2715 217.924 19.5471C218.444 18.4946 218.772 18.0436 219.661 17.1551Z" fill="white"/>
<path d="M153.158 12.1661H149.33V43.3303H153.158V12.1661Z" fill="white"/>
<path fill-rule="evenodd" clip-rule="evenodd" d="M16.3263 11.9545C15.4786 11.7222 14.6583 11.6402 13.25 11.5992C12.0879 11.5718 10.8984 11.6265 10.2421 11.7358C9.64051 11.8315 8.71079 12.0502 8.19124 12.2142C7.65801 12.3919 6.98807 12.6516 6.68728 12.802C6.38648 12.9523 5.77123 13.3487 5.32004 13.6631C4.86885 13.9911 4.13055 14.6336 3.66568 15.112C3.2145 15.5904 2.53088 16.4378 2.16172 16.9845C1.79257 17.5176 1.51912 17.996 1.56014 18.0233C1.60116 18.0507 2.28478 18.4471 3.09144 18.9118L4.56806 19.7456C5.49778 18.3104 6.20874 17.4903 6.74197 16.9709C7.27519 16.4651 8.06819 15.8774 8.49203 15.6587C8.92955 15.44 9.65418 15.153 10.1054 15.0163C10.6933 14.8386 11.3769 14.7702 12.498 14.7702C13.5371 14.7702 14.3711 14.8523 14.9591 15.0026C15.4513 15.1393 16.1486 15.3853 16.5314 15.563C16.9005 15.7407 17.5021 16.1781 17.8576 16.5198C18.2268 16.8615 18.6779 17.5039 18.883 17.9277C19.2248 18.6658 19.2522 18.8435 19.2522 20.6887L19.2659 22.657C15.7657 23.354 14.0157 23.7504 13.1133 23.9828C12.2109 24.2152 10.6386 24.6799 9.62683 25.0216C8.61508 25.3496 7.04276 25.9921 6.14038 26.4295C5.22433 26.8805 4.07586 27.5913 3.54263 28.015C3.00941 28.4387 2.32579 29.1085 1.99766 29.4912C1.66952 29.8876 1.20466 30.5983 0.944884 31.0904C0.698781 31.5825 0.384317 32.3752 0.247593 32.8673C0.0971974 33.455 0.0151632 34.2888 0.00149081 35.3276C-0.0121816 36.2434 0.0698526 37.2139 0.179232 37.6513C0.274938 38.0613 0.57573 38.8678 0.849177 39.4282C1.19099 40.1663 1.58748 40.713 2.23009 41.3418C2.77698 41.8748 3.51529 42.4352 4.08953 42.7359C4.62275 43.0093 5.44309 43.3374 5.9353 43.474C6.5779 43.6517 7.31621 43.7201 8.60141 43.7064C9.68152 43.7064 10.7616 43.6244 11.3359 43.5014C11.8554 43.3784 12.8535 43.0777 13.5235 42.8316C14.2071 42.5719 15.2735 42.0525 15.9025 41.6835C16.5177 41.3008 17.5158 40.6173 18.1174 40.1389C19.1155 39.3462 19.1975 39.3188 19.2522 39.5922C19.2664 39.6847 19.2992 39.9069 19.3408 40.1893C19.3792 40.4493 19.4251 40.7604 19.4709 41.0684C19.553 41.7108 19.676 42.4626 19.7581 42.7359L19.8811 43.2553H23.5726C23.559 42.6676 23.4906 42.1892 23.4086 41.8202C23.3129 41.3828 23.2308 36.9815 23.1761 29.7236C23.0941 19.2535 23.0668 18.242 22.8343 17.5586C22.6976 17.1486 22.3968 16.4651 22.1644 16.0551C21.932 15.645 21.3441 14.9069 20.8382 14.4149C20.2229 13.8135 19.553 13.3214 18.719 12.884C18.0353 12.5423 16.9689 12.1186 16.3263 11.9545ZM8.28694 29.1221C9.13463 28.7121 10.6249 28.1243 11.6093 27.81C12.5937 27.4956 14.5489 26.9352 15.9845 26.5661C17.4064 26.2108 18.719 25.9101 19.1975 25.8964V35.2593L18.2131 36.1614C17.6662 36.6535 16.6954 37.4599 16.0528 37.952C15.4102 38.4304 14.3028 39.1138 13.5918 39.4692C12.8809 39.8246 11.7734 40.2483 11.1308 40.3986C10.2284 40.631 9.6952 40.6857 8.73813 40.631C7.76739 40.5763 7.32988 40.4806 6.63259 40.1663C6.08569 39.9202 5.55247 39.5375 5.21066 39.1548C4.8962 38.8131 4.48603 38.198 4.29461 37.788C3.98015 37.1045 3.9528 36.8722 3.9528 35.3276C3.9528 33.6191 3.9528 33.5917 4.45868 32.5939C4.81416 31.8422 5.19699 31.3364 5.85326 30.7077C6.55055 30.0653 7.11112 29.6825 8.28694 29.1221Z" fill="white"/>
<path d="M469.236 0.411255H467.008L464.724 4.12908C463.48 6.17935 462.086 8.46198 461.621 9.18641C461.17 9.92451 460.842 10.5533 460.896 10.5943C460.965 10.6353 461.593 10.6763 462.304 10.6763H463.603C464.273 9.76049 466.037 7.50519 467.965 5.05854C469.893 2.61188 471.465 0.575276 471.465 0.520603C471.465 0.45226 470.467 0.411255 469.236 0.411255Z" fill="#2ED0FF"/>
<path fill-rule="evenodd" clip-rule="evenodd" d="M427.727 14.1071C426.893 13.8474 426.346 13.7654 424.856 13.7243C423.625 13.697 422.723 13.738 422.19 13.861C421.739 13.9704 420.877 14.2574 420.276 14.5034C419.674 14.7631 418.649 15.3099 418.02 15.7336C417.377 16.171 416.393 16.9364 415.846 17.4558C415.217 18.0436 414.807 18.3306 414.752 18.2349C414.697 18.1529 414.465 17.2098 414.219 16.1573L413.781 14.2164H410.91V56.5887L414.67 56.5203C414.711 44.7108 414.779 41.2937 414.834 41.2937C414.889 41.2937 415.34 41.649 415.832 42.0864C416.311 42.5238 417.022 43.1116 417.404 43.3849C417.774 43.672 418.608 44.164 419.25 44.4921C419.879 44.8201 420.863 45.2302 421.438 45.3805C422.053 45.5719 423.037 45.7086 423.967 45.7496C425.02 45.8042 425.786 45.7632 426.565 45.6266C427.166 45.5035 427.987 45.2849 428.411 45.1345C428.821 44.9841 429.614 44.5467 430.188 44.1914C430.749 43.8223 431.61 43.0979 432.102 42.5785C432.581 42.0591 433.278 41.1706 433.633 40.5966C433.989 40.0362 434.495 39.0247 434.768 38.3413C435.042 37.6715 435.384 36.66 435.52 36.086C435.671 35.5256 435.876 34.4184 435.985 33.6256C436.108 32.7782 436.19 31.2063 436.19 29.7301C436.19 28.2813 436.108 26.6821 435.985 25.8346C435.876 25.0555 435.63 23.8527 435.452 23.1693C435.274 22.4995 434.919 21.447 434.673 20.8456C434.413 20.2442 433.866 19.2327 433.442 18.5903C433.018 17.9616 432.225 17.0048 431.665 16.4717C431.118 15.9386 430.229 15.2689 429.71 14.9818C429.176 14.6811 428.288 14.2848 427.727 14.1071ZM418.635 18.7953C419.086 18.481 419.906 17.9889 420.481 17.7155C421.041 17.4422 421.957 17.1415 422.532 17.0321C423.092 16.9364 423.83 16.8408 424.172 16.8408C424.5 16.8271 425.184 16.9091 425.676 17.0048C426.155 17.1141 426.934 17.3738 427.385 17.5789C427.905 17.8249 428.506 18.2759 429.094 18.8637C429.573 19.3558 430.188 20.1212 430.448 20.5723C430.721 21.0233 431.131 21.9801 431.364 22.6909C431.61 23.4153 431.911 24.5771 432.047 25.2879C432.239 26.2993 432.294 27.3245 432.294 29.7985C432.294 32.2998 432.239 33.3113 432.047 34.3091C431.911 35.0335 431.624 36.168 431.391 36.8377C431.172 37.5212 430.694 38.56 430.352 39.1477C429.997 39.7354 429.368 40.5282 428.958 40.9109C428.534 41.2937 427.768 41.8131 427.248 42.0591C426.715 42.3051 425.854 42.5785 425.334 42.6605C424.787 42.7425 423.981 42.7698 423.489 42.7152C422.996 42.6605 422.19 42.4965 421.711 42.3461C421.219 42.1958 420.576 41.9497 420.276 41.7994C419.975 41.649 419.387 41.2937 418.977 41.0203C418.553 40.7332 417.828 40.1455 417.336 39.7081C416.857 39.257 416.064 38.4369 414.725 36.8377L414.738 22.6909L415.08 22.2535C415.271 22.0074 415.969 21.2693 416.625 20.5996C417.268 19.9298 418.184 19.1234 418.635 18.7953Z" fill="#2ED0FF"/>
<path fill-rule="evenodd" clip-rule="evenodd" d="M466.693 13.8747C466.119 13.7654 464.889 13.697 463.959 13.697C463.015 13.7107 462.086 13.738 461.908 13.779C461.717 13.8064 461.129 13.9567 460.609 14.1071C460.076 14.2711 459.283 14.5718 458.832 14.8042C458.38 15.0229 457.642 15.4739 457.191 15.7883C456.74 16.1163 456.001 16.7587 455.55 17.2508C455.113 17.7292 454.525 18.4536 454.238 18.8637C453.951 19.2874 453.472 20.1485 453.158 20.7773C452.843 21.4197 452.447 22.4312 452.269 23.0326C452.078 23.634 451.831 24.6591 451.722 25.2879C451.599 25.9303 451.449 27.2561 451.394 28.2266C451.326 29.2107 451.326 30.7826 451.394 31.7121C451.462 32.6552 451.613 33.9263 451.722 34.5141C451.845 35.1155 452.119 36.1816 452.337 36.8787C452.556 37.5758 452.898 38.4643 453.103 38.8607C453.294 39.257 453.732 40.0088 454.074 40.5282C454.415 41.0613 455.195 41.9907 455.81 42.5922C456.644 43.4123 457.218 43.836 458.148 44.3144C458.818 44.6698 459.925 45.1208 460.609 45.3259C461.676 45.6539 462.099 45.7086 463.959 45.7496C465.422 45.7632 466.338 45.7222 466.967 45.5856C467.445 45.4762 467.978 45.3669 468.129 45.3395C468.279 45.2985 468.826 45.1072 469.359 44.8885C469.879 44.6834 470.645 44.287 471.068 44.0137C471.479 43.7403 472.149 43.2072 472.572 42.8382C472.983 42.4555 473.666 41.69 474.104 41.1433C474.528 40.5829 475.156 39.6261 475.498 39.0247C475.84 38.4369 476.127 37.8902 476.127 37.8355C476.127 37.7809 475.553 37.4255 474.856 37.0564C474.158 36.6737 473.516 36.373 473.42 36.373C473.324 36.373 473.092 36.6874 472.887 37.0838C472.695 37.4801 472.217 38.2593 471.834 38.806C471.451 39.3664 470.768 40.1728 470.316 40.5966C469.852 41.034 469.045 41.5944 468.471 41.8814C467.691 42.2641 467.09 42.4418 466.01 42.6195C464.82 42.8109 464.369 42.8245 463.412 42.7015C462.769 42.6058 461.84 42.4145 461.361 42.2504C460.869 42.0864 460.103 41.69 459.652 41.3893C459.201 41.0886 458.613 40.6102 458.367 40.3505C458.107 40.0772 457.697 39.5441 457.451 39.1614C457.205 38.7923 456.863 38.1499 456.671 37.7262C456.48 37.3161 456.261 36.7967 456.179 36.5644C456.097 36.3457 455.933 35.8263 455.824 35.4025C455.701 34.9925 455.564 34.3774 455.523 34.0357C455.482 33.7076 455.427 33.3933 455.4 33.3523C455.373 33.3249 455.318 32.4912 455.263 31.507L455.167 29.7301C462.988 29.7301 467.678 29.7165 470.658 29.7028L476.059 29.6755C475.908 26.231 475.758 24.6728 475.635 23.9894C475.512 23.3196 475.252 22.2671 475.061 21.6657C474.883 21.0643 474.5 20.1485 474.24 19.6155C473.981 19.0961 473.502 18.2896 473.188 17.8386C472.873 17.3875 472.258 16.7177 471.848 16.335C471.424 15.966 470.727 15.4466 470.289 15.1869C469.852 14.9135 469.086 14.5581 468.607 14.3804C468.115 14.2027 467.254 13.9704 466.693 13.8747ZM458.408 19.2054C459.009 18.604 459.816 17.9479 460.199 17.7429C460.568 17.5378 461.334 17.2508 461.908 17.1005C462.742 16.8681 463.207 16.8271 464.506 16.8681C465.641 16.9091 466.297 17.0048 466.898 17.2235C467.35 17.3875 468.019 17.7155 468.389 17.9479C468.758 18.1939 469.373 18.727 469.756 19.1507C470.139 19.5608 470.672 20.3262 470.945 20.8593C471.219 21.3787 471.561 22.2125 471.711 22.6909C471.861 23.1829 472.053 24.044 472.135 24.6044C472.217 25.1785 472.313 25.9303 472.436 26.9281H455.208L455.291 26.2173C455.332 25.8209 455.523 24.9188 455.701 24.1944C455.878 23.4836 456.302 22.3218 456.658 21.5974C457.177 20.5449 457.505 20.1075 458.408 19.2054Z" fill="#2ED0FF"/>
<path d="M291.126 5.05854H287.298V14.2164H282.65V17.3602H287.298C287.298 37.7535 287.339 40.2138 287.49 41.1433C287.599 41.7857 287.79 42.5512 287.913 42.8519C288.05 43.1526 288.378 43.6993 288.652 44.0684C288.925 44.4511 289.445 44.9021 289.828 45.1208C290.197 45.3395 290.976 45.6129 291.537 45.7359C292.33 45.9136 292.945 45.9546 294.271 45.8863C295.214 45.8453 296.418 45.6949 296.937 45.5582L297.894 45.3122C297.836 43.4186 297.798 42.6605 297.788 42.4588C297.786 42.4232 297.785 42.4049 297.785 42.4008C297.771 42.3735 297.265 42.4692 296.664 42.6058C296.062 42.7289 295.078 42.8382 294.476 42.8382C293.574 42.8519 293.259 42.7835 292.699 42.5102C292.302 42.3051 291.878 41.9634 291.701 41.69C291.523 41.4303 291.331 40.993 291.263 40.7333C291.181 40.4462 291.126 35.6349 291.126 28.8143V17.3602H297.689V14.2164H291.126V5.05854Z" fill="#2ED0FF"/>
<path fill-rule="evenodd" clip-rule="evenodd" d="M327.085 14.1891C325.882 13.8064 325.608 13.7654 323.598 13.7244C322.395 13.7107 321.26 13.7244 321.069 13.7517C320.877 13.7927 320.276 13.943 319.743 14.0934C319.196 14.2301 318.362 14.5445 317.897 14.7768C317.418 15.0092 316.666 15.4602 316.215 15.7883C315.764 16.1027 315.026 16.7588 314.588 17.2371C314.151 17.7155 313.549 18.4536 313.276 18.8637C312.989 19.2738 312.565 20.0118 312.319 20.5039C312.072 20.996 311.758 21.6794 311.621 22.0485C311.471 22.4038 311.238 23.1693 311.088 23.757C310.938 24.3311 310.719 25.4519 310.596 26.2447C310.473 27.0921 310.391 28.6093 310.391 29.9352C310.391 31.179 310.459 32.6278 310.527 33.1473C310.61 33.6803 310.76 34.5688 310.883 35.1292C311.006 35.6896 311.252 36.6054 311.43 37.1521C311.621 37.6852 311.936 38.4643 312.127 38.8607C312.332 39.2434 312.756 39.9815 313.084 40.5009C313.412 41.0066 314.096 41.8404 314.616 42.3461C315.121 42.8519 315.901 43.5216 316.352 43.8223C316.803 44.123 317.61 44.5604 318.129 44.7928C318.649 45.0115 319.551 45.3259 320.112 45.4625C320.918 45.6676 321.629 45.7222 323.393 45.7222C325.321 45.7222 325.827 45.6812 326.811 45.4079C327.454 45.2302 328.466 44.8611 329.067 44.5604C329.669 44.2734 330.599 43.672 331.118 43.2346C331.638 42.7972 332.472 41.9361 332.964 41.321C333.456 40.7196 334.112 39.7628 334.427 39.216C334.741 38.6556 335.028 38.0952 335.083 37.9722C335.138 37.7809 334.892 37.5895 333.894 37.0428C333.196 36.6737 332.54 36.3593 332.458 36.3593C332.362 36.3593 332.116 36.6874 331.925 37.0701C331.72 37.4665 331.268 38.2183 330.899 38.7513C330.544 39.2844 329.915 40.0225 329.518 40.4189C329.122 40.8016 328.425 41.3483 327.973 41.6217C327.522 41.8951 326.716 42.2505 326.196 42.4145C325.403 42.6605 324.938 42.7152 323.462 42.7015C321.93 42.6878 321.534 42.6468 320.59 42.3325C319.92 42.1138 319.127 41.7174 318.539 41.3073C318.02 40.9383 317.323 40.3095 317.022 39.8995C316.707 39.4894 316.243 38.765 315.969 38.2729C315.696 37.7809 315.381 37.1384 315.285 36.8377C315.176 36.537 314.93 35.5802 314.725 34.7191C314.533 33.858 314.328 32.3955 314.274 31.4797L314.164 29.8258C315.012 29.6618 315.846 29.6618 316.557 29.7165C317.268 29.7711 321.725 29.7575 326.456 29.7028L335.056 29.5934C334.933 26.067 334.796 24.6591 334.618 23.7843C334.468 22.9916 334.194 21.9118 334.017 21.3924C333.839 20.873 333.47 19.9982 333.21 19.4788C332.936 18.9594 332.444 18.1529 332.116 17.7019C331.788 17.2508 331.2 16.6084 330.804 16.2667C330.421 15.925 329.71 15.4192 329.245 15.1322C328.766 14.8452 327.796 14.4214 327.085 14.1891ZM317.432 19.2054C318.047 18.5903 318.854 17.9342 319.223 17.7429C319.606 17.5379 320.372 17.2508 320.932 17.0868C321.766 16.8681 322.245 16.8271 323.53 16.8681C324.678 16.9091 325.321 17.0048 325.923 17.2098C326.374 17.3738 327.044 17.7019 327.413 17.9479C327.782 18.1939 328.397 18.727 328.78 19.1371C329.163 19.5608 329.696 20.3262 329.983 20.8456C330.257 21.3787 330.599 22.1988 330.749 22.6909C330.899 23.1829 331.091 24.0441 331.173 24.6045C331.255 25.1649 331.351 25.9166 331.46 26.9281H314.233L314.315 26.2173C314.369 25.8209 314.547 24.9052 314.725 24.1944C314.903 23.47 315.34 22.3218 315.696 21.5974C316.215 20.5449 316.543 20.0939 317.432 19.2054Z" fill="#2ED0FF"/>
<path d="M368.239 13.9841C367.897 13.8747 367.008 13.7654 366.256 13.738C365.504 13.7107 364.561 13.738 364.178 13.82C363.781 13.8884 362.947 14.1344 362.332 14.3531C361.703 14.5855 360.828 14.9819 360.377 15.2279C359.926 15.4876 358.996 16.1163 358.326 16.6494C357.656 17.1688 356.795 17.9206 356.412 18.3033C356.043 18.686 355.687 19.0004 355.633 19.0004C355.564 19.0004 355.523 17.9206 355.523 16.6084V14.2164H351.968V45.2438H355.66V22.6909C357.068 21.16 357.889 20.3536 358.381 19.9162C358.873 19.4788 359.598 18.9047 359.967 18.6587C360.35 18.4126 361.047 18.0163 361.539 17.7839C362.031 17.5515 362.92 17.2645 363.522 17.1415C364.424 16.9638 364.807 16.9501 365.682 17.0731C366.256 17.1551 367.022 17.3465 367.391 17.4968C367.746 17.6472 368.266 18.0026 368.539 18.276C368.813 18.563 369.168 19.0687 369.319 19.4104C369.469 19.7521 369.701 20.4629 369.825 20.9823C370.03 21.8434 370.071 23.1556 370.112 33.5846L370.153 45.2438H373.844V22.6909C375.485 20.8593 376.456 19.9298 377.057 19.4514C377.659 18.973 378.616 18.3443 379.176 18.0573C379.737 17.7565 380.571 17.4148 381.022 17.2782C381.528 17.1278 382.294 17.0321 383.005 17.0321C383.675 17.0321 384.481 17.1278 384.919 17.2645C385.329 17.3875 385.89 17.6199 386.136 17.7976C386.395 17.9752 386.819 18.3853 387.079 18.727C387.325 19.0687 387.653 19.7385 387.804 20.2305C387.94 20.7226 388.118 21.6794 388.2 22.3492C388.282 23.0599 388.337 28.0899 388.337 34.4047V45.2438H392.028C392.028 27.4612 391.974 22.1305 391.892 21.4607C391.823 20.8183 391.659 19.9298 391.55 19.4788C391.427 19.0277 391.112 18.1939 390.853 17.6335C390.538 16.9911 390.073 16.3214 389.581 15.8156C389.089 15.2962 388.487 14.8452 387.858 14.5445C387.339 14.2848 386.436 13.9841 385.876 13.861C385.151 13.7107 384.468 13.6697 383.552 13.7107C382.841 13.7517 381.815 13.9157 381.296 14.0661C380.776 14.2164 379.819 14.6128 379.176 14.9272C378.534 15.2416 377.426 15.9386 376.715 16.4854C376.004 17.0321 375.061 17.8249 374.637 18.2349C374.2 18.6587 373.749 19.0004 373.639 19.0004C373.53 19.0004 373.256 18.645 373.038 18.2213C372.819 17.7839 372.368 17.0595 372.039 16.6084C371.698 16.1573 371.123 15.5696 370.754 15.2962C370.385 15.0229 369.811 14.6538 369.469 14.4898C369.127 14.3121 368.58 14.0934 368.239 13.9841Z" fill="#2ED0FF"/>
</svg>
