<svg width="22" height="23" viewBox="0 0 22 23" fill="none" xmlns="http://www.w3.org/2000/svg">
<path d="M14.4192 3.70349H7.58083L2.75 8.53433V15.3727L7.58083 20.2035H14.4192L19.25 15.3727V8.53433L14.4192 3.70349ZM17.4167 14.6118L13.6583 18.3702H8.34167L4.58333 14.6118V9.29516L8.34167 5.53682H13.6583L17.4167 9.29516V14.6118Z" fill="#202224"/>
<path d="M11 16.5368C11.5062 16.5368 11.9166 16.1264 11.9166 15.6202C11.9166 15.1139 11.5062 14.7035 11 14.7035C10.4937 14.7035 10.0833 15.1139 10.0833 15.6202C10.0833 16.1264 10.4937 16.5368 11 16.5368Z" fill="#202224"/>
<path d="M10.0833 7.37016H11.9166V13.7868H10.0833V7.37016Z" fill="#202224"/>
</svg>
