<svg width="20" height="20" viewBox="0 0 20 20" fill="none" xmlns="http://www.w3.org/2000/svg">
<path d="M9.08335 5.32365H14.5834M5.41669 5.32365H6.33335M5.41669 9.90698H6.33335M5.41669 14.4903H6.33335M9.08335 9.90698H14.5834M9.08335 14.4903H14.5834M1.29169 9.90698C1.29169 5.80215 1.29169 3.74882 2.56677 2.47373C3.84185 1.19865 5.89427 1.19865 10 1.19865C14.1049 1.19865 16.1582 1.19865 17.4333 2.47373C18.7084 3.74882 18.7084 5.80123 18.7084 9.90698C18.7084 14.0118 18.7084 16.0651 17.4333 17.3402C16.1582 18.6153 14.1058 18.6153 10 18.6153C5.89519 18.6153 3.84185 18.6153 2.56677 17.3402C1.29169 16.0651 1.29169 14.0127 1.29169 9.90698Z" stroke="#202224" stroke-width="1.5" stroke-linecap="round" stroke-linejoin="round"/>
</svg>
