<svg width="22" height="22" viewBox="0 0 22 22" fill="none" xmlns="http://www.w3.org/2000/svg">
<path d="M1.925 0H20.075C21.175 0 22 0.825 22 1.925V12.9937H20.625V1.925C20.625 1.58125 20.4188 1.375 20.075 1.375H1.925C1.58125 1.375 1.375 1.58125 1.375 1.925V15.125C1.375 15.4 1.58125 15.675 1.925 15.675H2.2L5.9125 7.5625L8.25 12.3062L10.0375 9.2125L11.3438 11.3438C11 11.6187 10.6562 11.9625 10.3125 12.3062L10.1062 11.9625L8.25 15.125L6.05 10.6562L3.78125 15.6062H8.8V16.9812H1.58125C0.6875 16.8438 0 16.0187 0 15.125V1.925C0 0.825 0.89375 0 1.925 0Z" fill="#202224"/>
<path fill-rule="evenodd" clip-rule="evenodd" d="M14.4375 4.8125C14.4375 3.3 15.675 2.0625 17.1875 2.0625C18.7 2.0625 19.9375 3.3 19.9375 4.8125C19.9375 6.325 18.7 7.5625 17.1875 7.5625C15.675 7.5625 14.4375 6.325 14.4375 4.8125ZM15.8125 4.8125C15.8125 5.56875 16.4312 6.1875 17.1875 6.1875C17.9438 6.1875 18.5625 5.56875 18.5625 4.8125C18.5625 4.05625 17.9438 3.4375 17.1875 3.4375C16.4312 3.4375 15.8125 4.05625 15.8125 4.8125Z" fill="#202224"/>
<path d="M15.8812 12.8562V15.6062H18.6312V16.9812H15.8812V19.7312H14.5063V16.9812H11.7562V15.6062H14.5063V12.8562H15.8812Z" fill="#202224"/>
<path fill-rule="evenodd" clip-rule="evenodd" d="M15.1937 10.6562C17.7375 10.6562 19.8687 12.3062 20.625 14.6437C20.8312 15.125 20.9 15.7437 20.9 16.2937V16.8438C20.625 19.7312 18.15 22 15.1937 22C12.3062 22 9.9 19.8 9.55625 16.9812C9.55625 16.8781 9.53906 16.7578 9.52188 16.6375C9.50469 16.5172 9.4875 16.3969 9.4875 16.2937C9.4875 16.0875 9.4875 15.8125 9.55625 15.6062C9.69375 14.575 10.1062 13.6125 10.725 12.7875C11 12.4437 11.3438 12.1 11.7562 11.825C12.7188 11.0687 13.8875 10.6562 15.1937 10.6562ZM15.1937 20.5562C17.325 20.5562 19.1125 18.975 19.4562 16.9125C19.4562 16.8555 19.468 16.7868 19.4819 16.7062C19.5014 16.5923 19.525 16.4548 19.525 16.2937C19.525 16.0875 19.525 15.8125 19.4562 15.6062C19.1125 13.5437 17.325 11.9625 15.1937 11.9625C14.1625 11.9625 13.2 12.3063 12.4438 12.925C12.1 13.2 11.7562 13.6125 11.4812 14.025C11.2063 14.5062 11 14.9875 10.9312 15.5375C10.8625 15.7437 10.8625 16.0187 10.8625 16.225C10.8625 16.4312 10.8625 16.7063 10.9312 16.9125C11.275 18.975 13.0625 20.5562 15.1937 20.5562Z" fill="#202224"/>
</svg>
