<svg width="22" height="20" viewBox="0 0 22 20" fill="none" xmlns="http://www.w3.org/2000/svg">
<path d="M13.9891 17.1022C14.839 17.3489 15.7196 17.4737 16.6046 17.4728C18.0278 17.4749 19.4326 17.1504 20.7107 16.5243C20.7485 15.6312 20.4941 14.7502 19.9861 14.0147C19.4781 13.2793 18.7442 12.7295 17.8956 12.4486C17.047 12.1678 16.13 12.1712 15.2836 12.4585C14.4371 12.7457 13.7074 13.301 13.205 14.0403M13.9891 17.1022V17.0992C13.9891 15.9902 13.7042 14.947 13.205 14.0403M13.9891 17.1022V17.2078C12.0716 18.3627 9.87471 18.9712 7.63623 18.9674C5.31368 18.9674 3.14058 18.3247 1.28533 17.2078L1.28433 17.0992C1.28357 15.6888 1.75224 14.3182 2.61647 13.2036C3.4807 12.089 4.69132 11.2937 6.05746 10.9432C7.42361 10.5926 8.86758 10.7067 10.1617 11.2675C11.4559 11.8283 12.5265 12.8038 13.205 14.0403M11 4.3954C11 5.28726 10.6457 6.14259 10.0151 6.77323C9.38443 7.40388 8.52909 7.75817 7.63723 7.75817C6.74537 7.75817 5.89003 7.40388 5.25939 6.77323C4.62875 6.14259 4.27446 5.28726 4.27446 4.3954C4.27446 3.50353 4.62875 2.6482 5.25939 2.01756C5.89003 1.38691 6.74537 1.03262 7.63723 1.03262C8.52909 1.03262 9.38443 1.38691 10.0151 2.01756C10.6457 2.6482 11 3.50353 11 4.3954ZM19.2201 6.63724C19.2201 7.33091 18.9446 7.99617 18.4541 8.48667C17.9636 8.97717 17.2983 9.25273 16.6046 9.25273C15.911 9.25273 15.2457 8.97717 14.7552 8.48667C14.2647 7.99617 13.9891 7.33091 13.9891 6.63724C13.9891 5.94357 14.2647 5.27831 14.7552 4.78781C15.2457 4.29731 15.911 4.02175 16.6046 4.02175C17.2983 4.02175 17.9636 4.29731 18.4541 4.78781C18.9446 5.27831 19.2201 5.94357 19.2201 6.63724Z" stroke="white" stroke-width="1.63043" stroke-linecap="round" stroke-linejoin="round"/>
</svg>
