<svg width="20" height="20" viewBox="0 0 20 20" fill="none" xmlns="http://www.w3.org/2000/svg">
<path fill-rule="evenodd" clip-rule="evenodd" d="M15.4175 1.52084C14.4864 1.52084 13.74 2.26721 13.74 3.19835C13.74 4.09477 14.4294 4.81724 15.3022 4.87385C15.3754 4.86735 15.4504 4.86735 15.5236 4.87385C16.3949 4.81729 17.0873 4.09576 17.095 3.19589C17.0937 2.2733 16.3461 1.52084 15.4175 1.52084ZM12.365 3.19835C12.365 1.50782 13.727 0.145844 15.4175 0.145844C17.1098 0.145844 18.47 1.51872 18.47 3.19835V3.20326H18.47C18.4582 4.85227 17.1602 6.19115 15.5249 6.2504C15.4875 6.25175 15.45 6.25005 15.4129 6.24531C15.3758 6.25005 15.3383 6.25175 15.3009 6.2504C13.6665 6.19118 12.365 4.85204 12.365 3.19835Z" fill="#202224"/>
<path fill-rule="evenodd" clip-rule="evenodd" d="M14.4097 7.11365C15.8033 6.86951 17.3924 7.10227 18.5476 7.86882L18.5488 7.86964C19.3384 8.39604 19.8244 9.15881 19.8244 10.0092C19.8244 10.8595 19.3384 11.6223 18.5488 12.1487C17.4022 12.9162 15.8321 13.1481 14.442 12.9147C14.0675 12.8518 13.8149 12.4973 13.8778 12.1228C13.9407 11.7484 14.2952 11.4958 14.6696 11.5587C15.7907 11.7469 16.9883 11.539 17.7849 11.0055L17.7861 11.0046C18.289 10.6694 18.4494 10.2955 18.4494 10.0092C18.4494 9.72299 18.2892 9.34929 17.7868 9.01414C16.9803 8.47931 15.7647 8.27221 14.6469 8.46802C14.2729 8.53354 13.9166 8.28347 13.8511 7.90947C13.7856 7.53547 14.0357 7.17917 14.4097 7.11365Z" fill="#202224"/>
<path fill-rule="evenodd" clip-rule="evenodd" d="M1.5025 3.19835C1.5025 1.51872 2.86274 0.145844 4.555 0.145844C6.24553 0.145844 7.6075 1.50782 7.6075 3.19835C7.6075 4.85204 6.30598 6.19118 4.67156 6.2504C4.63415 6.25175 4.5967 6.25005 4.55959 6.24531C4.52248 6.25005 4.48503 6.25175 4.44761 6.2504C2.81234 6.19115 1.5143 4.85227 1.50252 3.20326L1.5025 3.19835ZM2.8775 3.1959C2.88518 4.09576 3.57763 4.81729 4.4489 4.87385C4.52211 4.86735 4.59708 4.86735 4.67028 4.87385C5.54305 4.81724 6.2325 4.09477 6.2325 3.19835C6.2325 2.26721 5.48614 1.52084 4.555 1.52084C3.62642 1.52084 2.87882 2.27331 2.8775 3.1959Z" fill="#202224"/>
<path fill-rule="evenodd" clip-rule="evenodd" d="M2.18574 9.01412C2.99219 8.47931 4.20778 8.27221 5.32554 8.46802C5.69954 8.53354 6.05584 8.28347 6.12136 7.90947C6.18688 7.53547 5.9368 7.17917 5.5628 7.11365C4.16918 6.86951 2.58011 7.10227 1.42489 7.86882L1.42489 7.86882L1.42365 7.86964C0.634048 8.39604 0.148132 9.15881 0.148132 10.0092C0.148132 10.8593 0.633793 11.6219 1.42303 12.1483C2.56975 12.9161 4.14013 13.1481 5.5305 12.9147C5.90495 12.8518 6.15755 12.4973 6.09468 12.1228C6.03182 11.7484 5.6773 11.4958 5.30285 11.5587C4.1818 11.7469 2.98417 11.539 2.18761 11.0055L2.18636 11.0046C1.68347 10.6694 1.52313 10.2955 1.52313 10.0092C1.52313 9.72299 1.68333 9.34928 2.18574 9.01412Z" fill="#202224"/>
<path fill-rule="evenodd" clip-rule="evenodd" d="M9.91755 8.36835C8.98641 8.36835 8.24005 9.11471 8.24005 10.0458C8.24005 10.9423 8.92951 11.6647 9.80227 11.7214C9.87651 11.7148 9.95256 11.7149 10.0267 11.7216C10.8909 11.6721 11.5873 10.9481 11.595 10.0434C11.5937 9.12081 10.8461 8.36835 9.91755 8.36835ZM6.86505 10.0458C6.86505 8.35532 8.22702 6.99335 9.91755 6.99335C11.6098 6.99335 12.9701 8.36622 12.9701 10.0458V10.0508H12.97C12.9583 11.6953 11.6636 13.0504 10.02 13.0981C9.98421 13.0991 9.94843 13.0973 9.91297 13.0928C9.87586 13.0976 9.83841 13.0993 9.80099 13.0979C8.16658 13.0387 6.86505 11.6995 6.86505 10.0458Z" fill="#202224"/>
<path fill-rule="evenodd" clip-rule="evenodd" d="M10.0035 13.8821C11.0746 13.8821 12.1827 14.1489 13.0489 14.7263C13.8385 15.2527 14.3244 16.0155 14.3244 16.8659C14.3244 17.7161 13.8386 18.4788 13.0492 19.0052C12.1793 19.5867 11.0716 19.8565 10 19.8565C8.92845 19.8565 7.82076 19.5867 6.95088 19.0052C6.16145 18.4788 5.67566 17.7161 5.67566 16.8659C5.67566 16.0155 6.16157 15.2527 6.95118 14.7263L6.95283 14.7252L6.95283 14.7252C7.82273 14.1489 8.93215 13.8821 10.0035 13.8821ZM7.71308 15.8709C7.21082 16.2061 7.05066 16.5797 7.05066 16.8659C7.05066 17.1522 7.21099 17.5261 7.71389 17.8613L7.71471 17.8619C8.31142 18.2609 9.13766 18.4815 10 18.4815C10.8624 18.4815 11.6886 18.2609 12.2854 17.8619L12.2862 17.8613C12.7891 17.5261 12.9494 17.1522 12.9494 16.8659C12.9494 16.5796 12.7891 16.2057 12.2862 15.8704C11.6949 15.4762 10.8688 15.2571 10.0035 15.2571C9.13874 15.2571 8.30978 15.4759 7.71308 15.8709Z" fill="#202224"/>
</svg>
