<svg width="18" height="19" viewBox="0 0 18 19" fill="none" xmlns="http://www.w3.org/2000/svg">
<path d="M13.0151 11.7651H12.2251L11.9451 11.4951C13.0416 10.2174 13.6006 8.56467 13.5045 6.88373C13.4085 5.20279 12.6649 3.62444 11.4299 2.48006C10.195 1.33567 8.56464 0.714264 6.88126 0.746297C5.19789 0.77833 3.59239 1.46131 2.40185 2.65185C1.21131 3.84239 0.52833 5.44789 0.496297 7.13126C0.464264 8.81464 1.08567 10.445 2.23006 11.6799C3.37444 12.9149 4.95279 13.6585 6.63373 13.7545C8.31467 13.8506 9.96744 13.2916 11.2451 12.1951L11.5151 12.4751V13.2651L16.5151 18.2551L18.0051 16.7651L13.0151 11.7651ZM7.01506 11.7651C6.12504 11.7651 5.25501 11.5011 4.51499 11.0067C3.77497 10.5122 3.1982 9.8094 2.8576 8.98713C2.51701 8.16487 2.42789 7.26007 2.60153 6.38715C2.77516 5.51424 3.20374 4.71241 3.83308 4.08308C4.46241 3.45374 5.26424 3.02516 6.13715 2.85153C7.01007 2.67789 7.91487 2.76701 8.73713 3.1076C9.5594 3.4482 10.2622 4.02497 10.7567 4.76499C11.2511 5.50501 11.5151 6.37504 11.5151 7.26506C11.5158 7.85623 11.4 8.44175 11.1741 8.98807C10.9483 9.53439 10.6168 10.0308 10.1988 10.4488C9.78078 10.8668 9.28439 11.1983 8.73807 11.4241C8.19175 11.65 7.60623 11.7658 7.01506 11.7651ZM4.51506 6.76506H9.51506V7.76506H4.51506V6.76506Z" fill="#EBEBEB"/>
</svg>
