<svg width="18" height="19" viewBox="0 0 18 19" fill="none" xmlns="http://www.w3.org/2000/svg">
<path d="M13.0199 11.7651H12.2299L11.9499 11.4951C13.0465 10.2174 13.6055 8.56467 13.5094 6.88373C13.4133 5.20279 12.6698 3.62444 11.4348 2.48006C10.1998 1.33567 8.56952 0.714264 6.88615 0.746297C5.20277 0.77833 3.59728 1.46131 2.40674 2.65185C1.2162 3.84239 0.533212 5.44789 0.50118 7.13126C0.469147 8.81464 1.09056 10.445 2.23494 11.6799C3.37933 12.9149 4.95768 13.6585 6.63861 13.7545C8.31955 13.8506 9.97233 13.2916 11.2499 12.1951L11.5199 12.4751V13.2651L16.5199 18.2551L18.0099 16.7651L13.0199 11.7651ZM7.01994 11.7651C6.12993 11.7651 5.2599 11.5011 4.51988 11.0067C3.77985 10.5122 3.20308 9.8094 2.86248 8.98713C2.52189 8.16487 2.43277 7.26007 2.60641 6.38715C2.78004 5.51424 3.20862 4.71241 3.83796 4.08308C4.4673 3.45374 5.26912 3.02516 6.14203 2.85153C7.01495 2.67789 7.91975 2.76701 8.74202 3.1076C9.56428 3.4482 10.2671 4.02497 10.7616 4.76499C11.256 5.50501 11.5199 6.37504 11.5199 7.26506C11.5207 7.85623 11.4049 8.44175 11.179 8.98807C10.9531 9.53439 10.6217 10.0308 10.2037 10.4488C9.78566 10.8668 9.28927 11.1983 8.74295 11.4241C8.19663 11.65 7.61111 11.7658 7.01994 11.7651ZM9.51994 7.76506H7.51994V9.76506H6.51994V7.76506H4.51994V6.76506H6.51994V4.76506H7.51994V6.76506H9.51994V7.76506Z" fill="#EBEBEB"/>
</svg>
